<?xml version="1.0"?>
<svg xmlns="http://www.w3.org/2000/svg" xmlns:xlink="http://www.w3.org/1999/xlink" xmlns:svgjs="http://svgjs.com/svgjs" version="1.1" width="512" height="512" x="0" y="0" viewBox="0 0 512 512" style="enable-background:new 0 0 512 512" xml:space="preserve" class=""><g><g xmlns="http://www.w3.org/2000/svg"><path d="m497 .004-482 .207c-8.284 0-15 6.716-15 15v327.586c0 8.284 6.716 15 15 15h83.789l-.003 44.308c0 2.775.77 5.497 2.224 7.86l42.291 68.745c12.63 20.531 35.45 33.285 59.555 33.285h160.061c40.446 0 73.352-32.905 73.352-73.352v-80.847h60.731c8.284 0 15-6.716 15-15v-327.585-.207c0-8.284-6.716-15-15-15zm-177.346 30.207h162.346v156.139h-162.346zm-289.654 297.586v-297.586h68.786v297.586zm376.269 110.847c0 23.904-19.447 43.352-43.352 43.352h-160.061c-13.763 0-26.792-7.282-34.003-19.004l-40.067-65.13.006-76.473c0-8.435 6.862-15.296 15.296-15.296h19.759l.004 45.675c0 .125.001.25.004.374v.173h.005c.291 9.843 7.866 15.144 14.995 15.144h.007c7.168-.003 14.791-5.312 14.991-15.151h.001c0-.013 0-.026 0-.043.002-.106.003-.213.003-.32l-.002-177.472c0-8.434 6.862-15.295 15.31-15.295 8.428 0 15.286 6.854 15.286 15.277l.003 145.461c0 8.284 6.716 15 15 15s15-6.716 15-15l.001-31.703c0-8.437 6.865-15.301 15.302-15.301 8.438 0 15.302 6.864 15.303 15.302v50.195c0 8.284 6.716 15 15 15s15-6.716 15-15v-31.701c0-8.438 6.865-15.303 15.303-15.303s15.303 6.865 15.303 15.303v59.441c0 8.284 6.716 15 15 15s15-6.716 15-15v-40.948c0-8.438 6.865-15.303 15.303-15.303s15.303 6.865 15.303 15.303v113.443zm30-110.847v-2.597c0-24.98-20.323-45.303-45.303-45.303-7.515 0-14.61 1.84-20.855 5.092-7.704-14.042-22.634-23.585-39.75-23.585-7.515 0-14.61 1.84-20.855 5.093-7.704-14.045-22.633-23.586-39.75-23.586-5.368 0-10.522.938-15.304 2.66l-.001-71.119c-.002-24.965-20.317-45.275-45.3-45.275-24.976 0-45.295 20.319-45.296 45.294l-.005 101.622h-19.76c-5.369 0-10.52.944-15.303 2.666v-248.548h160.869v171.139c0 8.284 6.716 15 15 15h177.344v111.447z" fill="#ffffff" data-original="#000000" style="" class=""/><path d="m429.112 74.514-42.45 42.45-16.119-16.119c-5.857-5.857-15.355-5.857-21.213 0s-5.858 15.355 0 21.213l26.726 26.726c2.929 2.929 6.768 4.394 10.606 4.394s7.678-1.465 10.606-4.394l53.057-53.057c5.858-5.857 5.858-15.355 0-21.213-5.858-5.857-15.356-5.857-21.213 0z" fill="#ffffff" data-original="#000000" style="" class=""/><path d="m64.393 162.442c-7.846 0-15.363 6.899-15 15 .364 8.127 6.591 15 15 15 7.846 0 15.363-6.899 15-15-.364-8.127-6.591-15-15-15z" fill="#ffffff" data-original="#000000" style="" class=""/></g></g></svg>
